<svg width="159" height="72" viewBox="0 0 159 72" fill="none" xmlns="http://www.w3.org/2000/svg">
<path d="M0.0335693 17.5732C0.0335693 15.9351 0.807581 15.0705 2.59592 15.0705H20.1829V18.2584C20.1829 19.8965 19.2653 20.6729 17.4301 20.6729H7.04025V26.7282H18.3945V31.9629H7.04025V38.6564H20.4232V41.8443C20.4232 43.4824 19.5056 44.2117 17.7172 44.2117H2.59592C0.807581 44.2117 0.0335693 43.3471 0.0335693 41.709V17.5732Z" fill="black"/>
<path d="M23.2766 17.526C23.2766 15.932 24.0006 15.0674 25.789 15.0674H35.9853C43.2323 15.0674 47.2928 18.8464 47.2928 24.4459C47.2928 28.4984 45.1674 31.4569 41.1069 32.8244L48.2572 42.9764C48.4975 43.3852 48.691 43.7969 48.691 44.2057H42.4084C41.1038 44.2057 40.62 44.1145 39.7992 42.8852L33.8568 33.8714H30.2801V44.2057H23.2734V17.526H23.2766ZM30.2832 20.6668V28.3161H35.5016C38.4478 28.3161 40.4796 27.3132 40.4796 24.4459C40.4796 21.5785 38.4509 20.6668 35.5016 20.6668H30.2832Z" fill="black"/>
<path d="M59.8985 14.8408C66.1312 14.8408 69.7078 15.479 69.7078 18.0729V20.5785H60.5757C57.8698 20.5785 56.8056 21.3519 56.8056 22.8106C56.8056 26.772 71.3495 26.0897 71.3495 35.8329C71.3495 40.4765 68.3065 44.4379 59.4647 44.4379C53.9093 44.4379 49.3182 43.7085 49.3182 41.2059V38.7002H59.8049C62.5576 38.7002 63.9121 37.8797 63.9121 36.1975C63.9121 31.9185 49.4181 32.5538 49.4181 22.6283C49.4181 18.2581 52.7045 14.8438 59.9047 14.8438L59.8985 14.8408Z" fill="black"/>
<path d="M92.5588 15.0674V18.3465C92.5588 19.9404 91.5913 20.6698 89.806 20.6698H85.4085V44.2086H78.4018V20.6668H71.2516V17.3878C71.2516 15.7938 72.1692 15.0645 73.9575 15.0645H92.5588V15.0674Z" fill="black"/>
<path d="M94.7807 17.5722C94.7807 15.9342 95.5547 15.0695 97.343 15.0695H114.93V18.2575C114.93 19.8955 114.012 20.6719 112.177 20.6719H101.787V26.7272H113.142V31.962H101.787V38.6554H115.17V41.8434C115.17 43.4814 114.253 44.2108 112.464 44.2108H97.3399C95.5515 44.2108 94.7775 43.3462 94.7775 41.7081V17.5722H94.7807Z" fill="black"/>
<path d="M122.963 36.401H150.562V32.9101H123.016C122.994 32.5072 123.007 24.6345 122.951 20.9966C122.904 17.894 125.151 14.8737 129.399 14.9413C137.139 15.0619 144.888 15.0619 152.628 14.9354C155.965 14.8796 159.001 17.1882 158.998 20.9437C158.998 21.4671 158.995 22.1083 158.995 22.7876H131.371V26.1961L158.995 26.1902C158.995 26.6578 159.005 34.5423 158.995 38.2096C158.983 41.9004 156.473 44.2208 152.51 44.2237C144.832 44.2237 137.154 44.2237 129.477 44.2237C125.482 44.2237 122.982 41.8769 122.966 38.1155C122.966 37.592 122.966 37.0685 122.966 36.401" fill="black"/>
<path d="M141.012 11.2975C137.748 11.2975 135.107 8.76243 135.126 5.65098C135.145 2.59246 137.798 0.10741 141.034 0.113292C144.271 0.119173 146.917 2.61598 146.924 5.67156C146.93 8.77714 144.28 11.3004 141.012 11.2975Z" fill="black"/>
<path d="M14.9469 65.7525C14.9783 65.8309 15.0175 65.9251 15.0646 66.0349C15.1117 66.1448 15.1431 66.2625 15.1588 66.388C15.1902 66.4978 15.1902 66.6077 15.1588 66.7175C15.1431 66.8117 15.0803 66.8823 14.9705 66.9294C14.892 66.9608 14.7978 66.9765 14.688 66.9765C14.5782 66.9765 14.4683 66.9765 14.3585 66.9765C14.1388 66.9765 13.9034 66.9765 13.6523 66.9765C13.4169 66.9765 13.2286 66.9372 13.0874 66.8588C12.9305 66.7646 12.8128 66.5998 12.7343 66.3645C12.6715 66.1291 12.6009 65.9172 12.5225 65.7289C12.3498 65.3209 12.1929 64.8972 12.0517 64.4578C11.9105 64.0185 11.7535 63.5869 11.5809 63.1632C11.5338 63.022 11.4868 62.8886 11.4397 62.7631C11.4083 62.6375 11.3612 62.5198 11.2985 62.41C11.2514 62.3002 11.1808 62.206 11.0866 62.1275C10.9925 62.0491 10.8669 61.9863 10.71 61.9392C10.6315 61.9078 10.5374 61.9 10.4275 61.9157C10.3334 61.9157 10.2314 61.9157 10.1215 61.9157H5.67277C5.53154 61.9157 5.37462 61.9157 5.202 61.9157C5.02939 61.9 4.86462 61.9 4.70769 61.9157C4.55077 61.9314 4.40169 61.9549 4.26046 61.9863C4.13492 62.0177 4.04077 62.0805 3.978 62.1746C3.85246 62.3315 3.75831 62.512 3.69554 62.716C3.64846 62.9043 3.58569 63.1005 3.50723 63.3045C3.35031 63.6654 3.20123 64.042 3.06 64.4343C2.93446 64.8266 2.79323 65.2032 2.63631 65.5642C2.60492 65.6583 2.56569 65.7682 2.51862 65.8937C2.48723 66.0035 2.448 66.1212 2.40092 66.2468C2.35385 66.3723 2.29892 66.49 2.23615 66.5998C2.18908 66.694 2.13415 66.7646 2.07138 66.8117C1.94585 66.9058 1.77323 66.9608 1.55354 66.9765C1.34954 66.9765 1.12985 66.9765 0.894462 66.9765C0.768923 66.9765 0.643385 66.9765 0.517846 66.9765C0.408 66.9608 0.313846 66.9215 0.235385 66.8588C0.156923 66.8117 0.109846 66.7411 0.0941539 66.6469C0.0941539 66.5528 0.102 66.4586 0.117692 66.3645C0.149077 66.2546 0.180462 66.1526 0.211846 66.0585C0.258923 65.9486 0.298154 65.8702 0.329539 65.8231C0.549231 65.3209 0.745385 64.8266 0.918 64.3402C1.09062 63.838 1.27892 63.3358 1.48292 62.8337C1.62415 62.4885 1.75754 62.1511 1.88308 61.8215C2.00862 61.4763 2.142 61.1311 2.28323 60.7858C2.754 59.656 3.20123 58.5183 3.62492 57.3728C4.04862 56.2115 4.49585 55.0582 4.96662 53.9126C5.13923 53.5046 5.29615 53.0888 5.43739 52.6651C5.59431 52.2414 5.75908 51.8255 5.93169 51.4175C6.01015 51.2449 6.08077 51.0566 6.14354 50.8526C6.222 50.6329 6.33185 50.476 6.47308 50.3818C6.53585 50.3191 6.63785 50.272 6.77908 50.2406C6.81046 50.2249 6.84185 50.2249 6.87323 50.2406C6.92031 50.2406 6.95954 50.2328 6.99092 50.2171C7.27339 50.2171 7.60292 50.2171 7.97954 50.2171C8.35615 50.2014 8.63077 50.2563 8.80339 50.3818C8.92892 50.476 9.02308 50.6329 9.08585 50.8526C9.16431 51.0566 9.24277 51.2449 9.32123 51.4175C9.47816 51.7785 9.61939 52.1394 9.74492 52.5003C9.87046 52.8612 10.0117 53.2222 10.1686 53.5831C10.2942 53.8969 10.4118 54.2186 10.5217 54.5482C10.6472 54.8777 10.7806 55.1994 10.9218 55.5132C11.3926 56.6588 11.8398 57.82 12.2635 58.9969C12.7029 60.1582 13.1658 61.3115 13.6523 62.4571C13.7151 62.5983 13.7622 62.7317 13.7935 62.8572C13.8406 62.9828 13.8877 63.1162 13.9348 63.2574C14.1074 63.6654 14.2722 64.0812 14.4291 64.5049C14.6017 64.9286 14.7743 65.3445 14.9469 65.7525ZM9.90969 60.0326C10.0509 59.9855 10.1372 59.9071 10.1686 59.7972C10.2157 59.6874 10.2235 59.5697 10.1922 59.4442C10.1765 59.3029 10.1372 59.1695 10.0745 59.044C10.0274 58.9028 9.98031 58.7851 9.93323 58.6909C9.90185 58.6282 9.88616 58.5732 9.88616 58.5262C9.88616 58.4791 9.87046 58.4242 9.83908 58.3614C9.792 58.2358 9.74492 58.1103 9.69785 57.9848C9.66646 57.8435 9.61939 57.7023 9.55662 57.5611C9.32123 56.9962 9.10939 56.4234 8.92108 55.8428C8.74846 55.2465 8.54446 54.6658 8.30908 54.1009C8.23062 53.9283 8.16 53.7557 8.09723 53.5831C8.05015 53.4105 7.98739 53.2457 7.90892 53.0888C7.87754 53.0103 7.83831 52.9397 7.79123 52.8769C7.75985 52.7985 7.68139 52.7592 7.55585 52.7592C7.52446 52.7906 7.49308 52.8142 7.46169 52.8298C7.43031 52.8455 7.39892 52.8691 7.36754 52.9005C7.30477 52.9789 7.25769 53.0652 7.22631 53.1594C7.19492 53.2378 7.16354 53.3242 7.13215 53.4183C7.05369 53.5909 6.99092 53.7635 6.94385 53.9362C6.89677 54.1088 6.834 54.2814 6.75554 54.454C6.48877 55.066 6.25339 55.6858 6.04939 56.3135C5.86108 56.9412 5.64139 57.5532 5.39031 58.1495C5.35892 58.228 5.32754 58.3065 5.29615 58.3849C5.28046 58.4634 5.25692 58.5418 5.22554 58.6203C5.17846 58.7458 5.13139 58.8714 5.08431 58.9969C5.03723 59.1225 4.998 59.248 4.96662 59.3735C4.93523 59.452 4.91954 59.5383 4.91954 59.6325C4.93523 59.7266 4.95877 59.8051 4.99015 59.8678C5.06862 59.9934 5.23339 60.064 5.48446 60.0797C5.73554 60.0797 5.97092 60.0797 6.19062 60.0797H8.70923C8.88185 60.0797 9.09369 60.0875 9.34477 60.1032C9.59585 60.1032 9.78416 60.0797 9.90969 60.0326ZM20.5123 54.5717C21.6421 54.556 22.5915 54.6894 23.3605 54.9718C24.1294 55.2386 24.7257 55.7172 25.1494 56.4077C25.2592 56.5803 25.3455 56.7608 25.4083 56.9491C25.4711 57.1217 25.5338 57.3178 25.5966 57.5375C25.628 57.6474 25.6358 57.7651 25.6201 57.8906C25.6045 58.0005 25.5809 58.0868 25.5495 58.1495C25.5181 58.1809 25.4789 58.2123 25.4318 58.2437C25.3848 58.2594 25.3455 58.2829 25.3141 58.3143C25.2357 58.3457 25.1572 58.3535 25.0788 58.3378C25.0003 58.3222 24.9218 58.3222 24.8434 58.3378C24.7178 58.3692 24.5531 58.3771 24.3491 58.3614C24.1451 58.33 24.0038 58.2908 23.9254 58.2437C23.7998 58.1652 23.7135 58.0632 23.6665 57.9377C23.6351 57.7965 23.5801 57.6631 23.5017 57.5375C23.3605 57.2865 23.1643 57.0589 22.9132 56.8549C22.7406 56.7294 22.5523 56.6352 22.3483 56.5725C22.1443 56.5097 21.9246 56.4469 21.6892 56.3842C21.6108 56.3528 21.5323 56.3449 21.4538 56.3606C21.3754 56.3606 21.2969 56.3528 21.2185 56.3371C21.1243 56.3057 21.0066 56.29 20.8654 56.29C20.7241 56.29 20.6065 56.3057 20.5123 56.3371H20.3711C20.2926 56.3528 20.2141 56.3685 20.1357 56.3842C20.0572 56.3842 19.9788 56.392 19.9003 56.4077C19.4923 56.5018 19.1549 56.6352 18.8881 56.8078C18.6214 56.9805 18.4409 57.2708 18.3468 57.6788C18.3154 57.7886 18.3075 57.8985 18.3232 58.0083C18.3546 58.1182 18.386 58.2123 18.4174 58.2908C18.5115 58.5262 18.6214 58.6988 18.7469 58.8086C18.8881 58.9028 19.0608 59.0126 19.2648 59.1382C19.5158 59.2951 19.7983 59.4128 20.1121 59.4912C20.426 59.554 20.7398 59.6325 21.0537 59.7266C21.2577 59.7894 21.4617 59.8365 21.6657 59.8678C21.8697 59.8992 22.0737 59.9463 22.2777 60.0091C22.6072 60.1032 22.9289 60.1974 23.2428 60.2915C23.5566 60.37 23.8705 60.472 24.1843 60.5975C24.2628 60.6289 24.3412 60.6603 24.4197 60.6917C24.4981 60.7231 24.5766 60.7623 24.6551 60.8094C24.9689 60.9977 25.2435 61.2095 25.4789 61.4449C25.7143 61.6803 25.9105 61.9785 26.0674 62.3394C26.0988 62.4492 26.1301 62.5983 26.1615 62.7866C26.1929 62.8965 26.2086 63.0142 26.2086 63.1397C26.2243 63.2495 26.2321 63.3751 26.2321 63.5163V63.7517C26.2008 63.8615 26.1851 63.9714 26.1851 64.0812C26.1851 64.1911 26.1694 64.3009 26.138 64.4108C26.0909 64.5834 26.036 64.7482 25.9732 64.9051C25.9105 65.062 25.8398 65.2032 25.7614 65.3288C25.5103 65.7368 25.1886 66.0663 24.7963 66.3174C24.404 66.5528 23.9646 66.7568 23.4781 66.9294C23.3369 66.9765 23.1878 67.0078 23.0309 67.0235C22.8897 67.0549 22.7485 67.0942 22.6072 67.1412C22.4503 67.1726 22.2934 67.1883 22.1365 67.1883C21.9795 67.1883 21.8226 67.204 21.6657 67.2354H21.4303C21.3518 67.2511 21.242 67.2589 21.1008 67.2589C20.9595 67.2589 20.8497 67.2511 20.7712 67.2354H20.5123C20.4181 67.204 20.3161 67.1883 20.2063 67.1883C20.0965 67.204 20.0023 67.1962 19.9238 67.1648C19.8454 67.1491 19.7434 67.1412 19.6178 67.1412C19.4923 67.1098 19.3668 67.0785 19.2412 67.0471C19.1314 67.0314 19.0137 67 18.8881 66.9529C18.4017 66.796 17.978 66.5998 17.6171 66.3645C17.2561 66.1291 16.9423 65.8231 16.6755 65.4465C16.5343 65.2425 16.4166 65.0306 16.3225 64.8109C16.2283 64.5912 16.142 64.348 16.0635 64.0812C16.0321 63.9871 16.0165 63.8772 16.0165 63.7517C16.0321 63.6105 16.0557 63.5006 16.0871 63.4222C16.1341 63.3594 16.2126 63.2966 16.3225 63.2338C16.4009 63.2025 16.5108 63.1868 16.652 63.1868C16.7932 63.1711 16.9345 63.1711 17.0757 63.1868C17.2169 63.2025 17.3503 63.226 17.4758 63.2574C17.6171 63.2731 17.7112 63.2966 17.7583 63.328C17.8681 63.4065 17.9388 63.5242 17.9701 63.6811C18.0172 63.8223 18.0721 63.9557 18.1349 64.0812C18.2918 64.4265 18.5037 64.6932 18.7705 64.8815C18.9588 65.0228 19.1706 65.1326 19.406 65.2111C19.6414 65.2895 19.8925 65.368 20.1592 65.4465L20.6535 65.5171H20.7948C20.9046 65.5485 21.0458 65.5642 21.2185 65.5642C21.4068 65.5642 21.5637 65.5485 21.6892 65.5171C21.7991 65.5171 21.8854 65.5092 21.9481 65.4935C22.0423 65.4778 22.1365 65.47 22.2306 65.47C22.3248 65.4543 22.4111 65.4386 22.4895 65.4229C22.9446 65.2974 23.3055 65.1326 23.5723 64.9286C23.8391 64.7246 24.0274 64.3794 24.1372 63.8929C24.1686 63.8145 24.1765 63.7282 24.1608 63.634C24.1451 63.5398 24.1294 63.4692 24.1137 63.4222C24.0352 63.124 23.9254 62.9043 23.7841 62.7631C23.6429 62.6062 23.4625 62.4649 23.2428 62.3394C23.1015 62.2452 22.9446 62.1668 22.772 62.104C22.5994 62.0412 22.4268 61.9785 22.2541 61.9157C22.2071 61.9 22.16 61.8922 22.1129 61.8922C22.0815 61.8922 22.0423 61.8765 21.9952 61.8451C21.4617 61.6725 20.9046 61.5469 20.324 61.4685C19.7591 61.3743 19.2255 61.2252 18.7234 61.0212C18.5665 60.9585 18.4174 60.9035 18.2761 60.8565C18.1349 60.8094 18.0015 60.7466 17.876 60.6682C17.5778 60.4955 17.3032 60.2994 17.0521 60.0797C16.8011 59.86 16.6049 59.5854 16.4637 59.2558C16.4166 59.146 16.3774 59.0362 16.346 58.9263C16.3303 58.8165 16.3068 58.6988 16.2754 58.5732C16.2283 58.3849 16.2126 58.1731 16.2283 57.9377C16.244 57.6866 16.2675 57.4748 16.2989 57.3022C16.3303 57.2237 16.346 57.1609 16.346 57.1138C16.3617 57.0511 16.3852 56.9883 16.4166 56.9255C16.5578 56.5646 16.7461 56.2508 16.9815 55.984C17.2326 55.7172 17.5151 55.4818 17.8289 55.2778C18.0643 55.1366 18.3232 55.0268 18.6057 54.9483C18.8881 54.8542 19.1863 54.7678 19.5001 54.6894C19.61 54.6737 19.712 54.658 19.8061 54.6423C19.916 54.6266 20.0337 54.6109 20.1592 54.5952C20.2063 54.5795 20.2691 54.5795 20.3475 54.5952C20.426 54.6109 20.4809 54.6031 20.5123 54.5717ZM40.1198 60.5975C40.1355 60.676 40.1434 60.778 40.1434 60.9035C40.1434 61.0291 40.1355 61.1311 40.1198 61.2095C40.0885 61.288 40.0806 61.3665 40.0963 61.4449C40.112 61.5077 40.112 61.5705 40.0963 61.6332C40.0963 61.7431 40.0885 61.8294 40.0728 61.8922C40.0414 62.0334 40.0178 62.1746 40.0021 62.3158C40.0021 62.4571 39.9865 62.5983 39.9551 62.7395C39.9237 62.8651 39.8923 62.9906 39.8609 63.1162C39.8295 63.226 39.7903 63.3437 39.7432 63.4692C39.5549 64.0498 39.296 64.5755 38.9665 65.0463C38.8723 65.1875 38.7703 65.3288 38.6605 65.47C38.5506 65.5955 38.4329 65.7132 38.3074 65.8231L38.1897 65.9408C38.0798 66.0192 37.9778 66.0977 37.8837 66.1762C37.7895 66.2546 37.6797 66.3331 37.5541 66.4115C37.3815 66.5371 37.1854 66.6469 36.9657 66.7411C36.7617 66.8195 36.5498 66.898 36.3301 66.9765C36.2046 67.0078 36.0791 67.0314 35.9535 67.0471C35.8437 67.0628 35.726 67.0863 35.6005 67.1177C35.5691 67.1177 35.5377 67.1177 35.5063 67.1177C35.4906 67.1334 35.4671 67.1412 35.4357 67.1412C35.2945 67.1726 35.0826 67.1883 34.8001 67.1883C34.5334 67.204 34.3215 67.1962 34.1646 67.1648H34.0469C33.9371 67.1491 33.8351 67.1334 33.7409 67.1177C33.6468 67.1177 33.5526 67.102 33.4585 67.0706C33.1917 66.9922 32.9406 66.9215 32.7052 66.8588C32.4698 66.796 32.2501 66.7018 32.0461 66.5763C31.7951 66.4351 31.5754 66.286 31.3871 66.1291C31.3243 66.082 31.2301 66.0192 31.1046 65.9408C30.9791 65.8466 30.8614 65.8388 30.7515 65.9172C30.6888 65.9643 30.6574 66.0271 30.6574 66.1055C30.6574 66.184 30.6417 66.2703 30.6103 66.3645C30.5946 66.4115 30.5946 66.4665 30.6103 66.5292C30.626 66.5763 30.626 66.6312 30.6103 66.694C30.5789 66.7882 30.5632 66.8902 30.5632 67C30.5789 67.1255 30.5868 67.2354 30.5868 67.3295V70.1542C30.5868 70.3738 30.5868 70.6014 30.5868 70.8368C30.5868 71.0722 30.5397 71.2526 30.4455 71.3782C30.3671 71.488 30.2415 71.5429 30.0689 71.5429C29.8963 71.5586 29.7237 71.5665 29.5511 71.5665H29.1745C29.0646 71.5351 28.9705 71.5037 28.892 71.4723C28.8292 71.4409 28.7743 71.386 28.7272 71.3075C28.6488 71.1977 28.6095 71.0251 28.6095 70.7897C28.6252 70.5543 28.6331 70.3503 28.6331 70.1777V56.0546C28.6331 55.8663 28.6331 55.678 28.6331 55.4897C28.6488 55.2857 28.6958 55.1209 28.7743 54.9954C28.8214 54.9326 28.9234 54.8855 29.0803 54.8542C29.2529 54.8071 29.4334 54.7914 29.6217 54.8071C29.81 54.8071 29.9826 54.8306 30.1395 54.8777C30.3121 54.9091 30.422 54.9562 30.4691 55.0189C30.5318 55.0974 30.5632 55.1915 30.5632 55.3014C30.5789 55.4112 30.6103 55.5211 30.6574 55.6309C30.6888 55.678 30.7123 55.7172 30.728 55.7486C30.7594 55.7643 30.7908 55.7878 30.8221 55.8192C30.9948 55.8349 31.136 55.78 31.2458 55.6545C31.3714 55.5289 31.4891 55.4269 31.5989 55.3485C32.0069 55.066 32.4934 54.8463 33.0583 54.6894C33.1995 54.658 33.3408 54.6345 33.482 54.6188C33.6389 54.6031 33.7958 54.5795 33.9528 54.5482C34.0155 54.5325 34.094 54.5325 34.1881 54.5482C34.2823 54.5638 34.3451 54.556 34.3765 54.5246C35.0512 54.5089 35.6475 54.5795 36.1654 54.7365C36.6832 54.8777 37.1461 55.0817 37.5541 55.3485C37.6326 55.4112 37.7111 55.474 37.7895 55.5368C37.868 55.5838 37.9465 55.6388 38.0249 55.7015C38.0563 55.7329 38.0798 55.7643 38.0955 55.7957C38.1269 55.8114 38.1583 55.8349 38.1897 55.8663C38.2681 55.9448 38.3545 56.0311 38.4486 56.1252C38.5428 56.2194 38.6291 56.3135 38.7075 56.4077C38.8958 56.6745 39.092 56.9648 39.296 57.2786C39.4215 57.4826 39.5235 57.7102 39.602 57.9612C39.6961 58.2123 39.7825 58.4634 39.8609 58.7145C39.8923 58.84 39.9158 58.9734 39.9315 59.1146C39.9629 59.2558 39.9943 59.3892 40.0257 59.5148C40.0257 59.5775 40.0257 59.6403 40.0257 59.7031C40.0414 59.7502 40.0492 59.7972 40.0492 59.8443C40.0806 59.9228 40.0885 60.0091 40.0728 60.1032C40.0728 60.1974 40.0885 60.2837 40.1198 60.3622V60.5975ZM38.0249 61.2331C38.0563 61.1546 38.0641 61.0605 38.0485 60.9506C38.0328 60.8251 38.0249 60.7152 38.0249 60.6211C38.0249 60.3543 38.0092 60.1032 37.9778 59.8678C37.9621 59.6325 37.9151 59.4049 37.8366 59.1852C37.8052 59.0911 37.7738 58.9969 37.7425 58.9028C37.7268 58.7929 37.6954 58.6909 37.6483 58.5968C37.4757 58.1731 37.2011 57.7651 36.8245 57.3728C36.4635 56.9805 36.1183 56.7137 35.7888 56.5725C35.6632 56.5097 35.5298 56.4626 35.3886 56.4312C35.2631 56.3998 35.1297 56.3606 34.9885 56.3135C34.8472 56.2822 34.6825 56.2665 34.4941 56.2665C34.3215 56.2665 34.1489 56.2665 33.9763 56.2665C33.9449 56.2978 33.8821 56.3135 33.788 56.3135C33.7095 56.2978 33.6389 56.2978 33.5761 56.3135C33.4349 56.3449 33.2937 56.3763 33.1525 56.4077C33.0269 56.4391 32.9014 56.4862 32.7758 56.5489C32.2737 56.7686 31.8578 57.0903 31.5283 57.514C31.2145 57.922 30.9712 58.4006 30.7986 58.9498C30.7358 59.1225 30.6888 59.2951 30.6574 59.4677C30.6417 59.6403 30.6181 59.8129 30.5868 59.9855C30.5711 60.0483 30.5632 60.1111 30.5632 60.1738C30.5632 60.2209 30.5554 60.2758 30.5397 60.3386V60.5269C30.524 60.6054 30.5161 60.7231 30.5161 60.88C30.5161 61.0212 30.524 61.1311 30.5397 61.2095V61.3978C30.5554 61.4606 30.5632 61.5234 30.5632 61.5862C30.5632 61.6489 30.5711 61.7038 30.5868 61.7509C30.6025 61.798 30.6103 61.8451 30.6103 61.8922C30.6103 61.9392 30.6181 61.9942 30.6338 62.0569C30.6652 62.1825 30.6888 62.308 30.7045 62.4335C30.7358 62.5591 30.7672 62.6846 30.7986 62.8102C30.9712 63.3437 31.2066 63.8145 31.5048 64.2225C31.8186 64.6148 32.2266 64.9208 32.7288 65.1405C33.0269 65.266 33.3329 65.3602 33.6468 65.4229C33.7095 65.4543 33.7723 65.47 33.8351 65.47C33.8978 65.4543 33.9606 65.4543 34.0234 65.47H34.2117C34.3215 65.5014 34.4314 65.5014 34.5412 65.47H34.7295C34.9021 65.4386 35.0669 65.4151 35.2238 65.3994C35.3808 65.3837 35.5377 65.3445 35.6946 65.2817C36.1811 65.0777 36.5734 64.8109 36.8715 64.4814C37.1854 64.1362 37.4443 63.7203 37.6483 63.2338C37.7268 63.0142 37.7817 62.7945 37.8131 62.5748C37.8601 62.3394 37.9151 62.0962 37.9778 61.8451C37.9935 61.7666 38.0014 61.696 38.0014 61.6332C38.0014 61.5705 38.0092 61.4998 38.0249 61.4214V61.2331ZM53.0136 60.4328C53.045 60.5897 53.045 60.7702 53.0136 60.9742C52.9979 61.1625 52.9508 61.2958 52.8724 61.3743C52.7939 61.4371 52.6762 61.4842 52.5193 61.5155C52.378 61.5312 52.2133 61.5391 52.025 61.5391C51.8367 61.5391 51.6484 61.5391 51.46 61.5391C51.2717 61.5234 51.107 61.5155 50.9657 61.5155H44.9399C44.8144 61.5155 44.6888 61.5234 44.5633 61.5391C44.4377 61.5391 44.3357 61.5626 44.2573 61.6097C44.1945 61.6411 44.1317 61.7038 44.069 61.798C44.0376 61.8451 44.0062 61.9157 43.9748 62.0098C43.9434 62.0883 43.9434 62.1668 43.9748 62.2452C43.9905 62.3237 43.9984 62.3943 43.9984 62.4571C43.9984 62.5198 44.0062 62.5826 44.0219 62.6454C44.0533 62.7709 44.0847 62.9043 44.116 63.0455C44.1474 63.1711 44.1945 63.2966 44.2573 63.4222C44.6182 64.2695 45.2145 64.8737 46.0462 65.2346C46.1404 65.2817 46.2424 65.3209 46.3522 65.3523C46.462 65.3837 46.5719 65.4151 46.6817 65.4465C46.7288 65.4622 46.8073 65.47 46.9171 65.47C47.1368 65.5328 47.4271 65.5642 47.788 65.5642C48.149 65.5642 48.4393 65.5328 48.659 65.47C48.8787 65.4072 49.0748 65.3445 49.2474 65.2817C49.4357 65.2032 49.6084 65.1091 49.7653 64.9992C49.9379 64.8894 50.087 64.7638 50.2125 64.6226C50.338 64.4657 50.4479 64.3009 50.542 64.1283C50.6362 63.9714 50.7147 63.8066 50.7774 63.634C50.8559 63.4614 50.9814 63.3358 51.154 63.2574C51.2168 63.226 51.3188 63.2025 51.46 63.1868C51.6013 63.1711 51.7425 63.1711 51.8837 63.1868C52.025 63.1868 52.1584 63.1946 52.2839 63.2103C52.4094 63.226 52.4957 63.2574 52.5428 63.3045C52.6997 63.4143 52.739 63.5948 52.6605 63.8458C52.535 64.2695 52.3702 64.6462 52.1662 64.9757C51.8524 65.4778 51.4914 65.8937 51.0834 66.2232C50.6911 66.5371 50.189 66.796 49.577 67C49.42 67.0628 49.2631 67.102 49.1062 67.1177C48.9493 67.1491 48.7845 67.1805 48.6119 67.2118C48.5334 67.2275 48.455 67.2354 48.3765 67.2354C48.3137 67.2354 48.2431 67.2432 48.1647 67.2589H47.9293C47.8508 67.2746 47.7567 67.2825 47.6468 67.2825C47.5527 67.2825 47.4742 67.2746 47.4114 67.2589H47.1996C47.1211 67.2432 47.0505 67.2354 46.9877 67.2354C46.925 67.2354 46.8622 67.2275 46.7994 67.2118C46.721 67.1962 46.6347 67.1805 46.5405 67.1648C46.4464 67.1648 46.36 67.1569 46.2816 67.1412C46.1404 67.1098 45.9991 67.0706 45.8579 67.0235C45.7167 66.9922 45.5833 66.9529 45.4577 66.9058C45.395 66.8745 45.34 66.8588 45.293 66.8588C45.2459 66.8431 45.191 66.8195 45.1282 66.7882C44.8928 66.6783 44.6417 66.5449 44.375 66.388C43.9199 66.0898 43.5276 65.7289 43.198 65.3052C42.8842 64.8658 42.6174 64.3794 42.3977 63.8458C42.3193 63.6732 42.2565 63.4928 42.2094 63.3045C42.178 63.1162 42.131 62.9278 42.0682 62.7395C42.0525 62.6768 42.0447 62.6218 42.0447 62.5748C42.0447 62.5277 42.0368 62.4649 42.0211 62.3865C41.9897 62.2609 41.9662 62.1275 41.9505 61.9863C41.9348 61.8451 41.9113 61.7038 41.8799 61.5626V61.2331C41.8642 61.1703 41.8485 61.084 41.8328 60.9742C41.8328 60.8486 41.8407 60.7466 41.8564 60.6682V60.4092C41.8877 60.3308 41.8956 60.2523 41.8799 60.1738C41.8799 60.0797 41.8877 59.9934 41.9034 59.9149C41.9662 59.6638 42.0133 59.4128 42.0447 59.1617C42.0917 58.9106 42.1624 58.6752 42.2565 58.4555C42.335 58.2829 42.4056 58.1103 42.4684 57.9377C42.5468 57.7494 42.6331 57.5689 42.7273 57.3963C43.0725 56.8471 43.4648 56.3763 43.9042 55.984C44.3436 55.576 44.885 55.2386 45.5284 54.9718C45.7167 54.8934 45.905 54.8385 46.0933 54.8071C46.2973 54.76 46.5091 54.7129 46.7288 54.6658C46.8073 54.6502 46.8779 54.6423 46.9407 54.6423C47.0034 54.6266 47.074 54.6188 47.1525 54.6188C47.1839 54.6031 47.2231 54.6031 47.2702 54.6188C47.3173 54.6345 47.3565 54.6266 47.3879 54.5952C48.047 54.5795 48.6197 54.6502 49.1062 54.8071C49.5927 54.9483 50.032 55.1445 50.4244 55.3955C50.5028 55.4269 50.5656 55.474 50.6127 55.5368C50.6597 55.5838 50.7147 55.6231 50.7774 55.6545C50.903 55.7486 51.0285 55.8585 51.154 55.984C51.2953 56.1095 51.413 56.2351 51.5071 56.3606C51.7582 56.6902 51.97 57.004 52.1427 57.3022C52.2525 57.4748 52.3388 57.6631 52.4016 57.8671C52.4644 58.0711 52.535 58.2751 52.6134 58.4791C52.6919 58.6831 52.7468 58.8949 52.7782 59.1146C52.8253 59.3343 52.8802 59.554 52.943 59.7737C52.9587 59.8835 52.9665 59.9934 52.9665 60.1032C52.9822 60.2131 52.9979 60.3229 53.0136 60.4328ZM50.7304 59.6325C50.7774 59.5697 50.8167 59.4912 50.848 59.3971C50.8794 59.2872 50.8794 59.1774 50.848 59.0675C50.7539 58.7223 50.6205 58.4006 50.4479 58.1025C50.2282 57.7415 49.985 57.4355 49.7182 57.1845C49.4514 56.9334 49.1062 56.7215 48.6825 56.5489C48.5727 56.5175 48.4628 56.494 48.353 56.4783C48.2431 56.4469 48.1254 56.4155 47.9999 56.3842C47.8744 56.3528 47.741 56.3371 47.5997 56.3371C47.4585 56.3371 47.3251 56.3371 47.1996 56.3371C47.1525 56.3685 47.0976 56.3842 47.0348 56.3842C46.972 56.3685 46.9171 56.3685 46.87 56.3842C46.7445 56.4155 46.619 56.4469 46.4934 56.4783C46.3836 56.494 46.2737 56.5175 46.1639 56.5489C45.7088 56.7372 45.34 56.9726 45.0576 57.2551C44.7908 57.5375 44.5476 57.8906 44.3279 58.3143C44.2808 58.3928 44.2337 58.4948 44.1867 58.6203C44.1396 58.7302 44.1004 58.8557 44.069 58.9969C44.0376 59.1382 44.0297 59.2715 44.0454 59.3971C44.0611 59.5226 44.116 59.6168 44.2102 59.6795C44.3357 59.7737 44.5476 59.8208 44.8457 59.8208C45.1596 59.8051 45.4264 59.7972 45.646 59.7972H49.2239C49.4593 59.7972 49.7417 59.8051 50.0713 59.8208C50.4008 59.8208 50.6205 59.758 50.7304 59.6325ZM59.9835 54.5717C61.1448 54.556 62.1099 54.7286 62.8788 55.0895C63.6634 55.4348 64.2832 55.9605 64.7383 56.6666C64.9423 56.9805 65.1149 57.3649 65.2562 57.82C65.2875 57.8985 65.3111 58.0005 65.3268 58.126C65.3425 58.2515 65.3346 58.3614 65.3032 58.4555C65.2562 58.534 65.1777 58.6046 65.0679 58.6674C65.0208 58.6988 64.9737 58.7145 64.9266 58.7145C64.8795 58.6988 64.8246 58.6988 64.7619 58.7145C64.6991 58.7302 64.6363 58.738 64.5735 58.738C64.5108 58.7223 64.448 58.7145 64.3852 58.7145C64.2126 58.7145 64.0479 58.7145 63.8909 58.7145C63.734 58.6988 63.6006 58.6517 63.4908 58.5732C63.3652 58.4791 63.2789 58.3457 63.2319 58.1731C63.1848 58.0005 63.122 57.8514 63.0435 57.7258C62.8082 57.3178 62.5022 56.9962 62.1255 56.7608C62 56.6823 61.8666 56.6195 61.7254 56.5725C61.5842 56.5097 61.4351 56.4548 61.2782 56.4077C61.0585 56.3449 60.7682 56.3135 60.4072 56.3135C60.0463 56.2978 59.7482 56.3292 59.5128 56.4077C59.4029 56.4391 59.3009 56.4626 59.2068 56.4783C59.1126 56.494 59.0106 56.5175 58.9008 56.5489C58.4928 56.7215 58.1319 56.9569 57.818 57.2551C57.5042 57.5532 57.2609 57.9063 57.0883 58.3143C57.0255 58.4555 56.9706 58.6046 56.9235 58.7615C56.8765 58.9028 56.8294 59.0597 56.7823 59.2323L56.6411 59.8678C56.6254 59.9463 56.6175 60.0326 56.6175 60.1268C56.6332 60.2209 56.6254 60.3072 56.594 60.3857V60.574C56.5783 60.6368 56.5626 60.7388 56.5469 60.88C56.5469 61.0212 56.5626 61.1232 56.594 61.186C56.6097 61.2645 56.6097 61.3429 56.594 61.4214C56.5783 61.4998 56.5783 61.5783 56.594 61.6568C56.6097 61.7195 56.6175 61.8294 56.6175 61.9863C56.6489 62.1118 56.6725 62.2452 56.6882 62.3865C56.7195 62.5277 56.7509 62.6611 56.7823 62.7866C56.9549 63.2888 57.1511 63.7282 57.3708 64.1048C57.6062 64.4657 57.9279 64.7795 58.3359 65.0463C58.4771 65.1248 58.6183 65.1954 58.7595 65.2582C58.9165 65.3209 59.0812 65.3837 59.2539 65.4465C59.3323 65.4622 59.3951 65.47 59.4422 65.47C59.4892 65.47 59.552 65.4778 59.6305 65.4935C59.6775 65.5092 59.756 65.5171 59.8659 65.5171H60.1248C60.1248 65.5328 60.1562 65.5406 60.2189 65.5406C60.2503 65.5249 60.2895 65.5249 60.3366 65.5406C60.3837 65.5406 60.4308 65.5328 60.4779 65.5171C60.5877 65.4857 60.6897 65.4778 60.7839 65.4935C60.8937 65.4935 61.0035 65.4778 61.1134 65.4465C61.5214 65.3209 61.8745 65.164 62.1726 64.9757C62.4708 64.7717 62.7219 64.5128 62.9259 64.1989C63.0043 64.0734 63.0749 63.94 63.1377 63.7988C63.2005 63.6575 63.2632 63.5163 63.326 63.3751C63.3574 63.2495 63.3888 63.1318 63.4202 63.022C63.4672 62.8965 63.5457 62.7945 63.6555 62.716C63.7026 62.6689 63.7968 62.6375 63.938 62.6218C64.0792 62.5905 64.2283 62.5748 64.3852 62.5748C64.5579 62.5591 64.7148 62.5591 64.856 62.5748C65.0129 62.5905 65.1228 62.6218 65.1855 62.6689C65.2797 62.7317 65.3346 62.8258 65.3503 62.9514C65.3817 63.0769 65.3817 63.2103 65.3503 63.3515C65.2719 63.5869 65.1934 63.8145 65.1149 64.0342C65.0522 64.2382 64.9659 64.4422 64.856 64.6462C64.6206 65.1169 64.3225 65.5328 63.9615 65.8937C63.6163 66.2546 63.1926 66.5449 62.6905 66.7646C62.5649 66.8274 62.4315 66.8823 62.2903 66.9294C62.1491 66.9608 62 67 61.8431 67.0471C61.6705 67.1098 61.4979 67.1412 61.3252 67.1412C61.1526 67.1569 60.98 67.1805 60.8074 67.2118C60.7446 67.2432 60.6819 67.2511 60.6191 67.2354C60.5563 67.2197 60.4935 67.2197 60.4308 67.2354H60.2189C60.0934 67.2354 59.9679 67.2354 59.8423 67.2354C59.7325 67.2511 59.6305 67.2432 59.5363 67.2118H59.4186L58.8537 67.1412C58.6497 67.0785 58.4535 67.0235 58.2652 66.9765C58.0769 66.9294 57.8965 66.8666 57.7239 66.7882C57.1589 66.5371 56.6882 66.2389 56.3115 65.8937C55.9506 65.5485 55.6132 65.1248 55.2994 64.6226C55.2209 64.4971 55.1503 64.3558 55.0875 64.1989C55.0248 64.042 54.962 63.8851 54.8992 63.7282C54.8208 63.5555 54.7659 63.3751 54.7345 63.1868C54.7031 62.9985 54.6639 62.8102 54.6168 62.6218C54.6011 62.5591 54.5932 62.4963 54.5932 62.4335C54.5932 62.3708 54.5854 62.308 54.5697 62.2452C54.5383 62.1511 54.5226 62.0491 54.5226 61.9392C54.5383 61.8294 54.5305 61.7274 54.4991 61.6332V61.3978C54.4834 61.3194 54.4755 61.2095 54.4755 61.0683C54.4755 60.9271 54.4834 60.8172 54.4991 60.7388C54.5148 60.6603 54.5148 60.5897 54.4991 60.5269C54.4991 60.4642 54.5069 60.4014 54.5226 60.3386C54.554 60.2288 54.5619 60.1189 54.5462 60.0091C54.5462 59.8992 54.5619 59.7972 54.5932 59.7031C54.656 59.4363 54.7109 59.1695 54.758 58.9028C54.8051 58.636 54.8757 58.3849 54.9699 58.1495C55.2994 57.3335 55.6995 56.6745 56.1703 56.1723C56.6411 55.6702 57.2845 55.2543 58.1005 54.9248C58.2731 54.8463 58.4614 54.7914 58.6654 54.76C58.8694 54.7286 59.0812 54.6894 59.3009 54.6423C59.4108 54.6266 59.5206 54.6188 59.6305 54.6188C59.7403 54.6031 59.858 54.5874 59.9835 54.5717ZM69.1897 51.1822C69.425 51.1822 69.6604 51.19 69.8958 51.2057C70.1312 51.2057 70.296 51.2685 70.3901 51.394C70.4686 51.4882 70.5078 51.6215 70.5078 51.7942C70.5235 51.9511 70.5314 52.1158 70.5314 52.2885V53.6537C70.5314 53.7792 70.5235 53.9126 70.5078 54.0538C70.5078 54.1794 70.5235 54.2892 70.5549 54.3834C70.6177 54.6031 70.7589 54.7443 70.9786 54.8071C71.057 54.8228 71.1277 54.8306 71.1904 54.8306C71.2689 54.8306 71.3474 54.8306 71.4258 54.8306C71.5984 54.8306 71.8103 54.8306 72.0614 54.8306C72.3124 54.8149 72.4929 54.8306 72.6027 54.8777C72.744 54.9718 72.8381 55.066 72.8852 55.1602C72.9166 55.2229 72.9323 55.2935 72.9323 55.372C72.9323 55.4505 72.9323 55.5289 72.9323 55.6074C72.9323 55.78 72.9244 55.9448 72.9087 56.1017C72.893 56.2429 72.8381 56.3528 72.744 56.4312C72.6498 56.5097 72.5164 56.5568 72.3438 56.5725C72.1869 56.5725 72.0143 56.5725 71.826 56.5725C71.6534 56.5568 71.4807 56.5489 71.3081 56.5489C71.1355 56.5489 70.9864 56.5725 70.8609 56.6195C70.751 56.6666 70.6726 56.7451 70.6255 56.8549C70.5784 56.9648 70.547 57.0982 70.5314 57.2551C70.5157 57.3963 70.5078 57.5532 70.5078 57.7258C70.5235 57.8828 70.5314 58.0397 70.5314 58.1966V62.8572C70.5314 63.2025 70.5235 63.5712 70.5078 63.9635C70.5078 64.3402 70.5784 64.6305 70.7197 64.8345C70.7981 64.96 70.9001 65.0463 71.0257 65.0934C71.1512 65.1405 71.3003 65.1797 71.4729 65.2111C71.52 65.2268 71.567 65.2346 71.6141 65.2346C71.6769 65.2189 71.7318 65.2189 71.7789 65.2346H72.0849C72.2418 65.2346 72.383 65.2503 72.5086 65.2817C72.6498 65.2974 72.7518 65.3523 72.8146 65.4465C72.846 65.4935 72.8695 65.5798 72.8852 65.7054C72.9166 65.8152 72.9323 65.9329 72.9323 66.0585C72.948 66.184 72.948 66.3095 72.9323 66.4351C72.9166 66.5449 72.8852 66.6312 72.8381 66.694C72.7754 66.8038 72.6577 66.8823 72.485 66.9294C72.3595 66.9608 72.2183 66.9765 72.0614 66.9765C71.9044 66.9608 71.7632 66.9529 71.6377 66.9529C71.5435 66.9529 71.4494 66.9608 71.3552 66.9765C71.261 66.9765 71.1747 66.9686 71.0963 66.9529H70.8138C70.7354 66.9372 70.6569 66.9294 70.5784 66.9294C70.5157 66.9137 70.445 66.9058 70.3666 66.9058C70.0527 66.8274 69.7781 66.7411 69.5427 66.6469C69.323 66.5528 69.1347 66.388 68.9778 66.1526C68.7581 65.8388 68.6326 65.4465 68.6012 64.9757C68.5698 64.4892 68.5541 63.9714 68.5541 63.4222V57.2551C68.507 57.0511 68.46 56.902 68.4129 56.8078C68.3815 56.7137 68.2717 56.6352 68.0834 56.5725C68.0206 56.5568 67.9578 56.5568 67.895 56.5725C67.8323 56.5882 67.7695 56.5803 67.7067 56.5489H67.3301C67.1261 56.5489 66.9535 56.5332 66.8123 56.5018C66.6867 56.4548 66.6004 56.3606 66.5534 56.2194C66.522 56.1566 66.4984 56.086 66.4827 56.0075C66.4827 55.9291 66.4827 55.8506 66.4827 55.7722C66.4827 55.5525 66.4984 55.372 66.5298 55.2308C66.5612 55.0738 66.6554 54.9562 66.8123 54.8777C66.9849 54.8149 67.2046 54.7992 67.4714 54.8306C67.7538 54.862 67.9892 54.8463 68.1775 54.7835C68.3187 54.7051 68.4286 54.5952 68.507 54.454C68.5384 54.3598 68.5541 54.2422 68.5541 54.1009C68.5541 53.9597 68.5541 53.8263 68.5541 53.7008V52.2414C68.5541 52.1158 68.5541 51.9903 68.5541 51.8648C68.5541 51.7235 68.5698 51.6058 68.6012 51.5117C68.664 51.3862 68.7817 51.2842 68.9543 51.2057C69.0014 51.2057 69.0406 51.2057 69.072 51.2057C69.119 51.19 69.1583 51.1822 69.1897 51.1822ZM78.9447 54.5717C80.0745 54.556 81.0239 54.6894 81.7928 54.9718C82.5618 55.2386 83.1581 55.7172 83.5818 56.4077C83.6916 56.5803 83.7779 56.7608 83.8407 56.9491C83.9035 57.1217 83.9662 57.3178 84.029 57.5375C84.0604 57.6474 84.0682 57.7651 84.0525 57.8906C84.0368 58.0005 84.0133 58.0868 83.9819 58.1495C83.9505 58.1809 83.9113 58.2123 83.8642 58.2437C83.8172 58.2594 83.7779 58.2829 83.7465 58.3143C83.6681 58.3457 83.5896 58.3535 83.5112 58.3378C83.4327 58.3222 83.3542 58.3222 83.2758 58.3378C83.1502 58.3692 82.9855 58.3771 82.7815 58.3614C82.5775 58.33 82.4362 58.2908 82.3578 58.2437C82.2322 58.1652 82.1459 58.0632 82.0988 57.9377C82.0675 57.7965 82.0125 57.6631 81.9341 57.5375C81.7928 57.2865 81.5967 57.0589 81.3456 56.8549C81.173 56.7294 80.9847 56.6352 80.7807 56.5725C80.5767 56.5097 80.357 56.4469 80.1216 56.3842C80.0432 56.3528 79.9647 56.3449 79.8862 56.3606C79.8078 56.3606 79.7293 56.3528 79.6508 56.3371C79.5567 56.3057 79.439 56.29 79.2978 56.29C79.1565 56.29 79.0388 56.3057 78.9447 56.3371H78.8035C78.725 56.3528 78.6465 56.3685 78.5681 56.3842C78.4896 56.3842 78.4112 56.392 78.3327 56.4077C77.9247 56.5018 77.5873 56.6352 77.3205 56.8078C77.0538 56.9805 76.8733 57.2708 76.7792 57.6788C76.7478 57.7886 76.7399 57.8985 76.7556 58.0083C76.787 58.1182 76.8184 58.2123 76.8498 58.2908C76.9439 58.5262 77.0538 58.6988 77.1793 58.8086C77.3205 58.9028 77.4932 59.0126 77.6972 59.1382C77.9482 59.2951 78.2307 59.4128 78.5445 59.4912C78.8584 59.554 79.1722 59.6325 79.4861 59.7266C79.6901 59.7894 79.8941 59.8365 80.0981 59.8678C80.3021 59.8992 80.5061 59.9463 80.7101 60.0091C81.0396 60.1032 81.3613 60.1974 81.6752 60.2915C81.989 60.37 82.3028 60.472 82.6167 60.5975C82.6952 60.6289 82.7736 60.6603 82.8521 60.6917C82.9305 60.7231 83.009 60.7623 83.0875 60.8094C83.4013 60.9977 83.6759 61.2095 83.9113 61.4449C84.1467 61.6803 84.3429 61.9785 84.4998 62.3394C84.5312 62.4492 84.5625 62.5983 84.5939 62.7866C84.6253 62.8965 84.641 63.0142 84.641 63.1397C84.6567 63.2495 84.6645 63.3751 84.6645 63.5163V63.7517C84.6332 63.8615 84.6175 63.9714 84.6175 64.0812C84.6175 64.1911 84.6018 64.3009 84.5704 64.4108C84.5233 64.5834 84.4684 64.7482 84.4056 64.9051C84.3429 65.062 84.2722 65.2032 84.1938 65.3288C83.9427 65.7368 83.621 66.0663 83.2287 66.3174C82.8364 66.5528 82.397 66.7568 81.9105 66.9294C81.7693 66.9765 81.6202 67.0078 81.4633 67.0235C81.3221 67.0549 81.1808 67.0942 81.0396 67.1412C80.8827 67.1726 80.7258 67.1883 80.5688 67.1883C80.4119 67.1883 80.255 67.204 80.0981 67.2354H79.8627C79.7842 67.2511 79.6744 67.2589 79.5332 67.2589C79.3919 67.2589 79.2821 67.2511 79.2036 67.2354H78.9447C78.8505 67.204 78.7485 67.1883 78.6387 67.1883C78.5288 67.204 78.4347 67.1962 78.3562 67.1648C78.2778 67.1491 78.1758 67.1412 78.0502 67.1412C77.9247 67.1098 77.7992 67.0785 77.6736 67.0471C77.5638 67.0314 77.4461 67 77.3205 66.9529C76.8341 66.796 76.4104 66.5998 76.0495 66.3645C75.6885 66.1291 75.3747 65.8231 75.1079 65.4465C74.9667 65.2425 74.849 65.0306 74.7548 64.8109C74.6607 64.5912 74.5744 64.348 74.4959 64.0812C74.4645 63.9871 74.4488 63.8772 74.4488 63.7517C74.4645 63.6105 74.4881 63.5006 74.5195 63.4222C74.5665 63.3594 74.645 63.2966 74.7548 63.2338C74.8333 63.2025 74.9432 63.1868 75.0844 63.1868C75.2256 63.1711 75.3668 63.1711 75.5081 63.1868C75.6493 63.2025 75.7827 63.226 75.9082 63.2574C76.0495 63.2731 76.1436 63.2966 76.1907 63.328C76.3005 63.4065 76.3712 63.5242 76.4025 63.6811C76.4496 63.8223 76.5045 63.9557 76.5673 64.0812C76.7242 64.4265 76.9361 64.6932 77.2028 64.8815C77.3912 65.0228 77.603 65.1326 77.8384 65.2111C78.0738 65.2895 78.3248 65.368 78.5916 65.4465L79.0859 65.5171H79.2272C79.337 65.5485 79.4782 65.5642 79.6508 65.5642C79.8392 65.5642 79.9961 65.5485 80.1216 65.5171C80.2315 65.5171 80.3178 65.5092 80.3805 65.4935C80.4747 65.4778 80.5688 65.47 80.663 65.47C80.7572 65.4543 80.8435 65.4386 80.9219 65.4229C81.377 65.2974 81.7379 65.1326 82.0047 64.9286C82.2715 64.7246 82.4598 64.3794 82.5696 63.8929C82.601 63.8145 82.6088 63.7282 82.5932 63.634C82.5775 63.5398 82.5618 63.4692 82.5461 63.4222C82.4676 63.124 82.3578 62.9043 82.2165 62.7631C82.0753 62.6062 81.8948 62.4649 81.6752 62.3394C81.5339 62.2452 81.377 62.1668 81.2044 62.104C81.0318 62.0412 80.8592 61.9785 80.6865 61.9157C80.6395 61.9 80.5924 61.8922 80.5453 61.8922C80.5139 61.8922 80.4747 61.8765 80.4276 61.8451C79.8941 61.6725 79.337 61.5469 78.7564 61.4685C78.1915 61.3743 77.6579 61.2252 77.1558 61.0212C76.9988 60.9585 76.8498 60.9035 76.7085 60.8565C76.5673 60.8094 76.4339 60.7466 76.3084 60.6682C76.0102 60.4955 75.7356 60.2994 75.4845 60.0797C75.2335 59.86 75.0373 59.5854 74.8961 59.2558C74.849 59.146 74.8098 59.0362 74.7784 58.9263C74.7627 58.8165 74.7392 58.6988 74.7078 58.5732C74.6607 58.3849 74.645 58.1731 74.6607 57.9377C74.6764 57.6866 74.6999 57.4748 74.7313 57.3022C74.7627 57.2237 74.7784 57.1609 74.7784 57.1138C74.7941 57.0511 74.8176 56.9883 74.849 56.9255C74.9902 56.5646 75.1785 56.2508 75.4139 55.984C75.665 55.7172 75.9475 55.4818 76.2613 55.2778C76.4967 55.1366 76.7556 55.0268 77.0381 54.9483C77.3205 54.8542 77.6187 54.7678 77.9325 54.6894C78.0424 54.6737 78.1444 54.658 78.2385 54.6423C78.3484 54.6266 78.4661 54.6109 78.5916 54.5952C78.6387 54.5795 78.7015 54.5795 78.7799 54.5952C78.8584 54.6109 78.9133 54.6031 78.9447 54.5717Z" fill="black"/>
</svg>
